#tb 0: 1/25
0,          0,          0,        1,   304128, 0xd4531e28
0,          1,          1,        1,   304128, 0xfb069ecd
0,          2,          2,        1,   304128, 0x4c376898
0,          3,          3,        1,   304128, 0x5a0c7282
0,          4,          4,        1,   304128, 0x4802850a
0,          5,          5,        1,   304128, 0xf670e9cc
0,          6,          6,        1,   304128, 0x5189c380
0,          7,          7,        1,   304128, 0x14d6de42
0,          8,          8,        1,   304128, 0xb65df5f1
0,          9,          9,        1,   304128, 0xc2f89ef5
0,         10,         10,        1,   304128, 0xde29db6b
0,         11,         11,        1,   304128, 0x10a71aae
0,         12,         12,        1,   304128, 0xf53d02ef
0,         13,         13,        1,   304128, 0x4b3632ca
0,         14,         14,        1,   304128, 0xce140f66
0,         15,         15,        1,   304128, 0x4bedf6f1
0,         16,         16,        1,   304128, 0xcc5edbd0
0,         17,         17,        1,   304128, 0x836a556a
0,         18,         18,        1,   304128, 0x3537c635
0,         19,         19,        1,   304128, 0x400df2dd
0,         20,         20,        1,   304128, 0x4292ccb3
0,         21,         21,        1,   304128, 0x2f71db21
0,         22,         22,        1,   304128, 0xa40b997c
0,         23,         23,        1,   304128, 0xeee30551
0,         24,         24,        1,   304128, 0x4f7bf0cb
0,         25,         25,        1,   304128, 0x9a70dfe0
0,         26,         26,        1,   304128, 0xc140124f
0,         27,         27,        1,   304128, 0x275bca59
0,         28,         28,        1,   304128, 0x4c62ceee
0,         29,         29,        1,   304128, 0xc1d54279
0,         30,         30,        1,   304128, 0xae7ef047
0,         31,         31,        1,   304128, 0x331570a8
0,         32,         32,        1,   304128, 0x10db2de2
0,         33,         33,        1,   304128, 0xcc60fdfb
0,         34,         34,        1,   304128, 0xe2cffcfa
0,         35,         35,        1,   304128, 0x5a7ff1fb
0,         36,         36,        1,   304128, 0xa39a4e47
0,         37,         37,        1,   304128, 0x79e40e52
0,         38,         38,        1,   304128, 0x53d0d393
0,         39,         39,        1,   304128, 0xeb5fcfc1
0,         40,         40,        1,   304128, 0x8923f95f
0,         41,         41,        1,   304128, 0xd27a2b71
0,         42,         42,        1,   304128, 0xe4fdd79e
0,         43,         43,        1,   304128, 0xcd8fb238
0,         44,         44,        1,   304128, 0x65e6eaaf
0,         45,         45,        1,   304128, 0x41bfcb1b
0,         46,         46,        1,   304128, 0xbecabb09
0,         47,         47,        1,   304128, 0xfa04a0ef
0,         48,         48,        1,   304128, 0xa43d9356
0,         49,         49,        1,   304128, 0x56fd6ae0
